<?xml version="1.0" encoding="utf-8"?>
<!-- Generator: Adobe Illustrator 16.0.0, SVG Export Plug-In . SVG Version: 6.00 Build 0)  -->
<!DOCTYPE svg PUBLIC "-//W3C//DTD SVG 1.1//EN" "http://www.w3.org/Graphics/SVG/1.1/DTD/svg11.dtd">
<svg version="1.1" id="Capa_1" xmlns="http://www.w3.org/2000/svg" xmlns:xlink="http://www.w3.org/1999/xlink" x="0px" y="0px"
	 width="482.136px" height="482.135px" viewBox="0 0 482.136 482.135" enable-background="new 0 0 482.136 482.135"
	 xml:space="preserve">
<rect x="0.001" y="0" fill="#181818" width="482.135" height="482.134"/>
<g>
	<path fill="#FFFFFF" d="M372.13,227.854l-78.64,78.637c-21.721,21.724-56.913,21.724-78.636,0l-26.211-26.215l26.211-26.207
		l26.213,26.207c7.24,7.228,18.987,7.242,26.214,0l78.634-78.633c7.224-7.231,7.224-18.989,0-26.223l-26.211-26.211
		c-7.227-7.221-18.988-7.221-26.214,0l-28.075,28.079c-13.014-7.66-27.806-10.945-42.451-9.958l44.317-44.332
		c21.721-21.713,56.93-21.713,78.634,0l26.216,26.211C393.851,170.923,393.851,206.142,372.13,227.854z M216.702,330.859
		l-28.058,28.057c-7.24,7.241-18.989,7.223-26.212,0l-26.213-26.211c-7.24-7.226-7.24-18.975,0-26.214l78.636-78.638
		c7.224-7.221,18.99-7.221,26.212,0l26.215,26.215l26.208-26.215l-26.208-26.211c-21.725-21.712-56.916-21.712-78.638,0
		l-78.638,78.634c-21.722,21.728-21.722,56.937,0,78.64l26.212,26.212c21.706,21.724,56.914,21.724,78.636,0l44.313-44.315
		C244.526,341.789,229.772,338.499,216.702,330.859z"/>
</g>
</svg>
