<?xml version="1.0" encoding="utf-8"?>
<!-- Generator: Adobe Illustrator 16.0.0, SVG Export Plug-In . SVG Version: 6.00 Build 0)  -->
<!DOCTYPE svg PUBLIC "-//W3C//DTD SVG 1.1//EN" "http://www.w3.org/Graphics/SVG/1.1/DTD/svg11.dtd">
<svg version="1.1"
	 id="svg3626" xmlns:dc="http://purl.org/dc/elements/1.1/" xmlns:cc="http://creativecommons.org/ns#" xmlns:rdf="http://www.w3.org/1999/02/22-rdf-syntax-ns#" xmlns:svg="http://www.w3.org/2000/svg"
	 xmlns="http://www.w3.org/2000/svg" xmlns:xlink="http://www.w3.org/1999/xlink" x="0px" y="0px" width="300px" height="244.188px"
	 viewBox="0 0 300 244.188" enable-background="new 0 0 300 244.188" xml:space="preserve">
<rect x="-2.5" y="0" fill="#181818" width="302.5" height="244.188"/>
<g id="layer1" transform="translate(-539.17946,-568.85777)">
	<path id="path3611" fill="#FFFFFF" d="M649.748,774.826c80.217,0,124.081-66.456,124.081-124.081c0-1.888-0.038-3.767-0.124-5.638
		c8.517-6.156,15.917-13.838,21.755-22.583c-7.814,3.474-16.224,5.812-25.044,6.867c9.005-5.4,15.916-13.94,19.178-24.122
		c-8.427,4.995-17.759,8.627-27.693,10.586c-7.959-8.478-19.288-13.779-31.833-13.779c-24.084,0-43.612,19.531-43.612,43.605
		c0,3.422,0.381,6.751,1.13,9.943c-36.246-1.824-68.386-19.177-89.893-45.564c-3.746,6.444-5.905,13.93-5.905,21.918
		c0,15.13,7.698,28.487,19.407,36.303c-7.155-0.223-13.876-2.185-19.75-5.455c-0.007,0.183-0.007,0.361-0.007,0.557
		c0,21.12,15.033,38.755,34.988,42.751c-3.665,0.999-7.521,1.535-11.5,1.535c-2.807,0-5.54-0.277-8.196-0.788
		c5.552,17.327,21.651,29.938,40.739,30.29c-14.926,11.699-33.73,18.668-54.166,18.668c-3.515,0-6.989-0.201-10.403-0.604
		c19.301,12.373,42.22,19.591,66.852,19.591"/>
</g>
</svg>
