<svg width="44" height="44" viewBox="0 0 44 44" fill="none" xmlns="http://www.w3.org/2000/svg">
<path fill-rule="evenodd" clip-rule="evenodd" d="M5 0C2.23858 0 0 2.23858 0 5V39C0 41.7614 2.23858 44 5 44H39C41.7614 44 44 41.7614 44 39V5C44 2.23858 41.7614 0 39 0H5ZM39.0001 3L21.0001 3C19.8955 3 19.0001 3.89543 19.0001 5C19.0001 6.10457 19.8955 7 21.0001 7L34.1716 7L2.58584 38.5858C1.8048 39.3668 1.8048 40.6332 2.58584 41.4142C3.36689 42.1953 4.63322 42.1953 5.41427 41.4142L37.0001 9.82843V23C37.0001 24.1046 37.8955 25 39.0001 25C40.1046 25 41.0001 24.1046 41.0001 23V5C41.0001 3.89543 40.1046 3 39.0001 3Z" fill="white"/>
</svg>
